<svg xmlns="http://www.w3.org/2000/svg" width="99" height="161" viewBox="0 0 99 161" fill="none">
<path d="M49.0514 130.337C47.8648 132.194 46.2056 133.262 44.9063 133.025C35.664 131.336 0.00294234 123.421 0.000993867 101.797C-0.00080947 81.7827 0.000295283 59.1373 0.000793018 51.0883C0.000905735 49.2656 0.996484 47.0767 2.47967 45.6214L40.1598 8.65096C40.9355 7.88982 41.7784 7.40016 42.5541 7.25995L81.943 0.140743C82.4501 0.049076 82.9129 0.109696 83.2989 0.318349L97.5644 8.03077C98.9496 8.77965 99.0731 11.243 97.8837 13.693C93.2539 23.2292 82.713 45.8121 82.713 53.7448C82.7128 76.0662 56.5387 118.621 49.0514 130.337Z" fill="#c00000" style="color: #c00000;"/>
<path d="M59.055 132.419C58.0431 133.612 56.881 134.274 55.8787 134.23C48.3079 133.897 16.1045 131.192 16.1026 109.268C16.1008 89.2543 16.1019 66.6088 16.1024 58.5599C16.1025 56.7371 17.098 54.5482 18.5812 53.093L56.2614 16.1225C57.0371 15.3613 57.88 14.8717 58.6557 14.7315L96.3356 7.92115C97.8189 7.65306 98.8145 8.68231 98.8145 10.5051C98.8146 18.3807 98.8146 40.329 98.8145 61.2164C98.8144 84.1848 66.6564 123.457 59.055 132.419Z" fill="#900"/>
<path d="M41.082 92.1884L41.6095 93.7637C42.4102 96.155 45.05 96.1387 47.5056 93.7273C49.6918 91.5805 50.9949 88.2591 50.6896 85.8687C51.7895 85.9291 53.1338 85.3235 54.4271 84.0535C56.014 82.4951 57.1357 80.3178 57.5145 78.3269L63.0265 78.6718C63.5616 78.7053 63.8922 79.1705 63.8922 79.8899L63.8922 81.0331C63.8922 81.5051 64.2194 81.6913 64.623 81.4489C65.0304 81.2042 65.3592 80.617 65.3536 80.1437L65.3338 78.4469C65.3235 77.5657 64.9181 76.9924 64.2644 76.9346L60.6889 76.6183C58.5837 76.4321 57.2754 74.5906 57.2354 71.7572L57.199 69.1846C57.1977 69.0907 57.277 68.9756 57.3536 68.96L65.6064 67.2874C65.6506 67.2784 65.69 67.2693 65.7347 67.2582C66.4937 67.0702 73.9785 65.3587 74.2393 70.9058C74.5704 77.9489 74.6193 85.6699 71.0134 93.7352C68.4355 99.501 64.6267 104.739 59.0503 108.437C49.6731 114.655 41.392 113.573 41.2816 100.978C41.2468 97.0083 41.1703 94.1886 41.082 92.1884Z" fill="white"/>
<path d="M46.476 72.677C45.9155 71.0031 46.8546 68.2777 48.5735 66.5897C50.2924 64.9017 52.1403 64.8903 52.7008 66.5642L56.0835 76.6662C56.644 78.3401 55.7049 81.0655 53.986 82.7535C52.2671 84.4415 50.4192 84.4529 49.8587 82.779L46.476 72.677Z" fill="white"/>
<path d="M39.8726 83.3009C39.3121 81.627 40.2512 78.9016 41.9701 77.2136C43.689 75.5256 45.5369 75.5142 46.0974 77.1881L49.1619 86.3401C49.7225 88.014 48.7834 90.7394 47.0645 92.4274C45.3455 94.1154 43.4977 94.1268 42.9372 92.4529L39.8726 83.3009Z" fill="white"/>
<path d="M49.1816 50.7694C48.541 48.8563 49.6142 45.7416 51.5787 43.8125C53.5432 41.8833 55.655 41.8703 56.2956 43.7834L63.3423 64.8276C63.4535 65.1598 63.9447 64.8341 64.0189 64.3789L68.3205 38.0004C68.748 35.3791 70.7333 32.6751 72.7549 31.961C74.7765 31.2468 76.0688 32.7929 75.6413 35.4143L70.7936 65.1418C68.652 64.8898 66.475 65.3926 66.0539 65.4969C66.0196 65.5054 65.9966 65.5107 65.9723 65.5156L57.7194 67.1882C56.7235 67.39 55.6929 68.8873 55.7101 70.1072L55.7125 70.2734L49.1816 50.7694Z" fill="white"/>
</svg>