<svg xmlns="http://www.w3.org/2000/svg" width="230" height="215" viewBox="0 0 230 215" fill="none">
<path fill-rule="evenodd" clip-rule="evenodd" d="M3.61265 168.199C-0.873464 166.435 -1.27768 160.258 2.94049 157.927L30.5612 142.664L30.5917 162.844C30.5936 163.847 31.1303 164.774 32.0021 165.276L112.287 210.929L3.61265 168.199Z" fill="#333333" fill-opacity="0.2"/>
<path fill-rule="evenodd" clip-rule="evenodd" d="M35.1448 58.5845L135.585 1.23237C137.39 0.201982 139.732 -0.288766 141.759 0.176153C144.605 0.830178 147.274 1.72312 147.268 4.2073L147.421 97.2632L138.584 102.468C141.476 103.871 229.642 146.645 229.787 146.75L230 150.341C230 151.889 229.178 153.317 227.834 154.094C212.826 162.759 124.911 213.417 124.911 213.417C122.018 215.083 118.453 215.083 115.561 213.417L32.002 165.275C31.1302 164.773 30.5934 163.846 30.5916 162.843L30.4463 66.6412C30.4546 63.3112 32.2463 60.2394 35.1448 58.5845Z" fill="#C6C6C6"/>
<path fill-rule="evenodd" clip-rule="evenodd" d="M33.4062 162.526L147.509 97.6322L147.744 4.78103C147.751 2.09852 144.844 0.414109 142.509 1.74706L37.2885 61.8287C34.9971 63.1368 33.5821 65.5647 33.5747 68.1955L33.4062 162.526Z" fill="#666666"/>
<path fill-rule="evenodd" clip-rule="evenodd" d="M143.049 7.13925L38.5886 66.9045L38.3711 154.318L143.049 94.4215V7.13925Z" fill="#900"/>
<path fill-rule="evenodd" clip-rule="evenodd" d="M33.4717 162.52L147.514 96.9635L228.165 143.426C230.495 144.769 230.494 148.12 228.165 149.462L123.173 209.94C120.887 211.257 118.07 211.257 115.784 209.94L33.4717 162.52Z" fill="#F4F4F4"/>
<path fill-rule="evenodd" clip-rule="evenodd" d="M65.0343 164.538C62.7633 165.837 61.6278 166.488 59.3567 167.788C57.0598 166.493 55.9122 165.847 53.6162 164.553C55.8873 163.253 57.0228 162.603 59.2938 161.302C61.5898 162.598 62.7383 163.244 65.0343 164.538Z" fill="#C6C6C6"/>
<path fill-rule="evenodd" clip-rule="evenodd" d="M73.4152 159.741C71.1442 161.041 70.0086 161.691 67.7376 162.991C65.4416 161.697 64.2931 161.05 61.9971 159.757C64.2681 158.456 65.4036 157.806 67.6747 156.506C69.9716 157.8 71.1192 158.447 73.4152 159.741Z" fill="#C6C6C6"/>
<path fill-rule="evenodd" clip-rule="evenodd" d="M81.797 154.943C79.526 156.242 78.3904 156.893 76.1185 158.192C73.8224 156.899 72.674 156.252 70.3779 154.958C72.6499 153.658 73.7854 153.008 76.0565 151.708C78.3525 153.002 79.501 153.649 81.797 154.943Z" fill="#C6C6C6"/>
<path fill-rule="evenodd" clip-rule="evenodd" d="M90.1798 150.147C87.9078 151.447 86.7723 152.097 84.5013 153.397C82.2053 152.103 81.0568 151.456 78.7607 150.162C81.0318 148.862 82.1673 148.211 84.4393 146.912C86.7353 148.205 87.8838 148.852 90.1798 150.147Z" fill="#C6C6C6"/>
<path fill-rule="evenodd" clip-rule="evenodd" d="M98.5607 145.347C96.2896 146.648 95.1532 147.298 92.8821 148.598C90.5852 147.305 89.4376 146.657 87.1416 145.364C89.4126 144.063 90.5482 143.414 92.8192 142.113C95.1162 143.407 96.2646 144.054 98.5607 145.347Z" fill="#C6C6C6"/>
<path fill-rule="evenodd" clip-rule="evenodd" d="M106.943 140.549C104.671 141.85 103.535 142.5 101.264 143.8C98.9679 142.505 97.8195 141.859 95.5234 140.566C97.7945 139.266 98.9309 138.615 101.202 137.315C103.498 138.609 104.646 139.256 106.943 140.549Z" fill="#C6C6C6"/>
<path fill-rule="evenodd" clip-rule="evenodd" d="M115.324 135.753C113.052 137.053 111.917 137.703 109.646 139.004C107.35 137.71 106.201 137.062 103.905 135.769C106.176 134.469 107.312 133.818 109.584 132.518C111.88 133.812 113.027 134.459 115.324 135.753Z" fill="#C6C6C6"/>
<path fill-rule="evenodd" clip-rule="evenodd" d="M123.705 130.955C121.433 132.255 120.298 132.905 118.027 134.205C115.731 132.911 114.582 132.265 112.286 130.97C114.557 129.67 115.693 129.02 117.965 127.72C120.261 129.014 121.409 129.661 123.705 130.955Z" fill="#C6C6C6"/>
<path fill-rule="evenodd" clip-rule="evenodd" d="M132.088 126.158C129.817 127.459 128.681 128.108 126.409 129.408C124.113 128.115 122.965 127.468 120.669 126.174C122.94 124.874 124.076 124.224 126.347 122.924C128.644 124.217 129.792 124.864 132.088 126.158Z" fill="#C6C6C6"/>
<path fill-rule="evenodd" clip-rule="evenodd" d="M140.469 121.362C138.198 122.661 137.062 123.312 134.791 124.611C132.495 123.318 131.347 122.67 129.05 121.376C131.322 120.077 132.457 119.426 134.728 118.126C137.025 119.421 138.173 120.067 140.469 121.362Z" fill="#C6C6C6"/>
<path fill-rule="evenodd" clip-rule="evenodd" d="M148.85 116.564C146.579 117.864 145.444 118.514 143.172 119.815C140.876 118.52 139.728 117.873 137.432 116.58C139.704 115.279 140.839 114.63 143.11 113.33C145.406 114.623 146.554 115.271 148.85 116.564Z" fill="#C6C6C6"/>
<path fill-rule="evenodd" clip-rule="evenodd" d="M157.232 111.766C154.961 113.066 153.824 113.716 151.553 115.016C149.257 113.722 148.109 113.075 145.812 111.781C148.084 110.481 149.22 109.832 151.491 108.531C153.786 109.826 154.936 110.472 157.232 111.766Z" fill="#C6C6C6"/>
<path fill-rule="evenodd" clip-rule="evenodd" d="M73.0919 169.078C70.8209 170.378 69.6854 171.028 67.4134 172.329C65.1174 171.034 63.9689 170.387 61.6729 169.094C63.9439 167.794 65.0794 167.143 67.3505 165.843C69.6465 167.137 70.7959 167.785 73.0919 169.078Z" fill="#C6C6C6"/>
<path fill-rule="evenodd" clip-rule="evenodd" d="M81.4738 164.281C79.2027 165.581 78.0672 166.231 75.7952 167.531C73.4992 166.237 72.3507 165.59 70.0547 164.296C72.3257 162.995 73.4613 162.346 75.7332 161.046C78.0292 162.34 79.1777 162.987 81.4738 164.281Z" fill="#C6C6C6"/>
<path fill-rule="evenodd" clip-rule="evenodd" d="M89.8555 159.484C87.5836 160.784 86.448 161.434 84.177 162.734C81.881 161.44 80.7316 160.794 78.4355 159.499C80.7075 158.199 81.843 157.549 84.1141 156.249C86.411 157.543 87.5586 158.19 89.8555 159.484Z" fill="#C6C6C6"/>
<path fill-rule="evenodd" clip-rule="evenodd" d="M98.2374 154.686C95.9654 155.986 94.8299 156.636 92.5588 157.936C90.2619 156.642 89.1134 155.994 86.8174 154.701C89.0884 153.401 90.2239 152.751 92.4959 151.451C94.7919 152.745 95.9404 153.391 98.2374 154.686Z" fill="#C6C6C6"/>
<path fill-rule="evenodd" clip-rule="evenodd" d="M106.619 149.888C104.347 151.189 103.212 151.839 100.94 153.139C98.6437 151.844 97.4952 151.198 95.1992 149.904C97.4703 148.604 98.6058 147.953 100.878 146.654C103.174 147.947 104.322 148.595 106.619 149.888Z" fill="#C6C6C6"/>
<path fill-rule="evenodd" clip-rule="evenodd" d="M115.001 145.09C112.729 146.391 111.594 147.04 109.323 148.341C107.026 147.047 105.877 146.4 103.581 145.107C105.853 143.806 106.989 143.157 109.26 141.855C111.557 143.15 112.704 143.797 115.001 145.09Z" fill="#C6C6C6"/>
<path fill-rule="evenodd" clip-rule="evenodd" d="M123.382 140.294C121.111 141.593 119.975 142.244 117.704 143.544C115.407 142.249 114.259 141.603 111.963 140.309C114.234 139.008 115.37 138.358 117.641 137.059C119.937 138.352 121.086 138.999 123.382 140.294Z" fill="#C6C6C6"/>
<path fill-rule="evenodd" clip-rule="evenodd" d="M131.765 135.496C129.493 136.796 128.357 137.446 126.086 138.746C123.789 137.453 122.641 136.805 120.345 135.511C122.616 134.211 123.752 133.561 126.023 132.261C128.319 133.554 129.468 134.202 131.765 135.496Z" fill="#C6C6C6"/>
<path fill-rule="evenodd" clip-rule="evenodd" d="M140.146 130.698C137.874 131.998 136.738 132.648 134.466 133.947C132.17 132.654 131.022 132.008 128.726 130.712C130.997 129.413 132.132 128.763 134.404 127.463C136.701 128.757 137.849 129.403 140.146 130.698Z" fill="#C6C6C6"/>
<path fill-rule="evenodd" clip-rule="evenodd" d="M148.525 125.9C146.254 127.201 145.118 127.851 142.848 129.151C140.551 127.857 139.402 127.209 137.105 125.916C139.377 124.616 140.513 123.966 142.784 122.666C145.081 123.959 146.228 124.607 148.525 125.9Z" fill="#C6C6C6"/>
<path fill-rule="evenodd" clip-rule="evenodd" d="M156.908 121.103C154.637 122.402 153.502 123.053 151.231 124.352C148.934 123.058 147.786 122.412 145.49 121.117C147.761 119.818 148.896 119.168 151.167 117.868C153.464 119.162 154.612 119.808 156.908 121.103Z" fill="#C6C6C6"/>
<path fill-rule="evenodd" clip-rule="evenodd" d="M165.287 116.307C161.48 118.486 159.575 119.576 155.768 121.755C153.471 120.462 152.322 119.815 150.026 118.521C153.835 116.341 155.738 115.252 159.546 113.072C161.842 114.366 162.991 115.013 165.287 116.307Z" fill="#C6C6C6"/>
<path fill-rule="evenodd" clip-rule="evenodd" d="M84.9023 171.471C81.1301 173.63 79.2441 174.71 75.472 176.868C73.176 175.574 72.0275 174.927 69.7314 173.634C73.5026 171.474 75.3887 170.395 79.1608 168.236C81.4568 169.53 82.6053 170.177 84.9023 171.471Z" fill="#C6C6C6"/>
<path fill-rule="evenodd" clip-rule="evenodd" d="M89.5314 168.822C87.2603 170.122 86.1248 170.772 83.8538 172.072C81.5568 170.777 80.4083 170.131 78.1123 168.837C80.3833 167.536 81.5189 166.887 83.7899 165.587C86.0869 166.88 87.2353 167.527 89.5314 168.822Z" fill="#C6C6C6"/>
<path fill-rule="evenodd" clip-rule="evenodd" d="M97.9132 164.023C95.6412 165.324 94.5057 165.973 92.2346 167.273C89.9377 165.98 88.7901 165.333 86.4932 164.038C88.7642 162.738 89.9007 162.089 92.1717 160.788C94.4677 162.083 95.6162 162.729 97.9132 164.023Z" fill="#C6C6C6"/>
<path fill-rule="evenodd" clip-rule="evenodd" d="M106.294 159.227C104.022 160.527 102.887 161.178 100.615 162.478C98.3185 161.183 97.1701 160.536 94.874 159.242C97.1451 157.943 98.2806 157.292 100.553 155.993C102.849 157.286 103.997 157.933 106.294 159.227Z" fill="#C6C6C6"/>
<path fill-rule="evenodd" clip-rule="evenodd" d="M114.677 154.428C112.405 155.729 111.269 156.378 108.997 157.679C106.701 156.385 105.553 155.738 103.257 154.444C105.528 153.144 106.663 152.494 108.935 151.193C111.231 152.487 112.38 153.135 114.677 154.428Z" fill="#C6C6C6"/>
<path fill-rule="evenodd" clip-rule="evenodd" d="M123.058 149.631C120.786 150.931 119.65 151.581 117.379 152.882C115.082 151.587 113.934 150.941 111.637 149.646C113.909 148.346 115.044 147.696 117.316 146.396C119.612 147.691 120.761 148.337 123.058 149.631Z" fill="#C6C6C6"/>
<path fill-rule="evenodd" clip-rule="evenodd" d="M131.439 144.833C129.168 146.133 128.032 146.783 125.76 148.083C123.464 146.79 122.316 146.142 120.02 144.848C122.291 143.548 123.426 142.898 125.698 141.598C127.994 142.891 129.143 143.539 131.439 144.833Z" fill="#C6C6C6"/>
<path fill-rule="evenodd" clip-rule="evenodd" d="M139.822 140.037C137.55 141.336 136.415 141.987 134.144 143.286C131.847 141.993 130.698 141.346 128.402 140.051C130.673 138.752 131.809 138.101 134.081 136.802C136.377 138.095 137.525 138.742 139.822 140.037Z" fill="#C6C6C6"/>
<path fill-rule="evenodd" clip-rule="evenodd" d="M148.202 135.238C145.931 136.539 144.796 137.188 142.524 138.489C140.228 137.195 139.079 136.547 136.783 135.253C139.054 133.953 140.19 133.304 142.462 132.003C144.758 133.297 145.906 133.944 148.202 135.238Z" fill="#C6C6C6"/>
<path fill-rule="evenodd" clip-rule="evenodd" d="M156.584 130.441C154.313 131.741 153.177 132.392 150.906 133.691C148.61 132.397 147.461 131.75 145.165 130.456C147.436 129.157 148.573 128.506 150.844 127.206C153.14 128.5 154.287 129.147 156.584 130.441Z" fill="#C6C6C6"/>
<path fill-rule="evenodd" clip-rule="evenodd" d="M164.966 125.644C162.695 126.944 161.559 127.593 159.288 128.895C156.991 127.6 155.844 126.953 153.548 125.659C155.819 124.359 156.953 123.709 159.225 122.409C161.521 123.703 162.67 124.35 164.966 125.644Z" fill="#C6C6C6"/>
<path fill-rule="evenodd" clip-rule="evenodd" d="M173.346 120.847C171.075 122.147 169.939 122.796 167.668 124.096C165.372 122.803 164.224 122.156 161.927 120.862C164.198 119.561 165.334 118.912 167.605 117.612C169.901 118.906 171.05 119.553 173.346 120.847Z" fill="#C6C6C6"/>
<path fill-rule="evenodd" clip-rule="evenodd" d="M89.2091 178.159C86.9381 179.459 85.8025 180.109 83.5306 181.409C81.2345 180.115 80.0861 179.468 77.79 178.174C80.0611 176.874 81.1966 176.224 83.4676 174.924C85.7637 176.217 86.9121 176.865 89.2091 178.159Z" fill="#C6C6C6"/>
<path fill-rule="evenodd" clip-rule="evenodd" d="M97.589 173.362C95.3179 174.662 94.1824 175.312 91.9114 176.612C89.6144 175.318 88.466 174.671 86.1699 173.377C88.441 172.077 89.5765 171.427 91.8475 170.127C94.1445 171.421 95.292 172.068 97.589 173.362Z" fill="#C6C6C6"/>
<path fill-rule="evenodd" clip-rule="evenodd" d="M105.97 168.565C103.699 169.865 102.563 170.515 100.292 171.815C97.9953 170.521 96.8477 169.874 94.5508 168.58C96.8227 167.28 97.9583 166.63 100.229 165.33C102.525 166.624 103.674 167.271 105.97 168.565Z" fill="#C6C6C6"/>
<path fill-rule="evenodd" clip-rule="evenodd" d="M114.353 163.766C112.081 165.066 110.945 165.717 108.673 167.017C106.377 165.723 105.229 165.075 102.933 163.782C105.204 162.482 106.339 161.832 108.611 160.531C110.907 161.825 112.056 162.473 114.353 163.766Z" fill="#C6C6C6"/>
<path fill-rule="evenodd" clip-rule="evenodd" d="M122.734 158.969C120.462 160.269 119.327 160.919 117.055 162.219C114.759 160.925 113.61 160.279 111.314 158.984C113.585 157.685 114.722 157.034 116.993 155.734C119.289 157.029 120.437 157.675 122.734 158.969Z" fill="#C6C6C6"/>
<path fill-rule="evenodd" clip-rule="evenodd" d="M131.115 154.171C128.844 155.472 127.709 156.121 125.437 157.422C123.141 156.128 121.992 155.481 119.696 154.188C121.967 152.886 123.104 152.237 125.375 150.937C127.671 152.23 128.819 152.878 131.115 154.171Z" fill="#C6C6C6"/>
<path fill-rule="evenodd" clip-rule="evenodd" d="M139.497 149.375C137.226 150.674 136.091 151.325 133.819 152.624C131.523 151.331 130.374 150.684 128.078 149.389C130.349 148.09 131.485 147.439 133.757 146.14C136.053 147.433 137.201 148.08 139.497 149.375Z" fill="#C6C6C6"/>
<path fill-rule="evenodd" clip-rule="evenodd" d="M147.881 144.576C145.61 145.876 144.473 146.526 142.201 147.826C139.905 146.533 138.757 145.885 136.461 144.591C138.732 143.291 139.868 142.641 142.139 141.341C144.436 142.635 145.584 143.282 147.881 144.576Z" fill="#C6C6C6"/>
<path fill-rule="evenodd" clip-rule="evenodd" d="M156.261 139.78C153.99 141.08 152.854 141.73 150.583 143.03C148.286 141.735 147.138 141.088 144.842 139.795C147.113 138.495 148.248 137.845 150.52 136.544C152.817 137.839 153.965 138.485 156.261 139.78Z" fill="#C6C6C6"/>
<path fill-rule="evenodd" clip-rule="evenodd" d="M164.642 134.98C162.371 136.28 161.234 136.93 158.963 138.231C156.667 136.937 155.519 136.289 153.223 134.996C155.494 133.696 156.629 133.046 158.901 131.745C161.197 133.04 162.345 133.687 164.642 134.98Z" fill="#C6C6C6"/>
<path fill-rule="evenodd" clip-rule="evenodd" d="M176.644 128.111C172.925 130.241 171.064 131.305 167.345 133.434C165.048 132.139 163.901 131.493 161.604 130.199C165.323 128.069 167.183 127.005 170.903 124.876C173.199 126.17 174.347 126.818 176.644 128.111Z" fill="#C6C6C6"/>
<path fill-rule="evenodd" clip-rule="evenodd" d="M181.403 125.387C179.132 126.687 177.998 127.336 175.725 128.636C173.43 127.342 172.281 126.696 169.984 125.401C172.255 124.101 173.392 123.452 175.663 122.152C177.96 123.445 179.107 124.092 181.403 125.387Z" fill="#C6C6C6"/>
<path fill-rule="evenodd" clip-rule="evenodd" d="M98.38 183.326C96.109 184.627 94.9734 185.276 92.7024 186.576C90.4064 185.281 89.2579 184.635 86.9609 183.342C89.2329 182.042 90.3684 181.391 92.6395 180.092C94.9355 181.385 96.084 182.032 98.38 183.326Z" fill="#C6C6C6"/>
<path fill-rule="evenodd" clip-rule="evenodd" d="M106.76 178.528C104.489 179.828 103.353 180.477 101.082 181.778C98.7854 180.484 97.6378 179.837 95.3418 178.544C97.6128 177.243 98.7484 176.594 101.019 175.293C103.315 176.587 104.464 177.234 106.76 178.528Z" fill="#C6C6C6"/>
<path fill-rule="evenodd" clip-rule="evenodd" d="M115.142 173.731C112.871 175.031 111.734 175.681 109.463 176.981C107.167 175.687 106.019 175.041 103.723 173.746C105.994 172.446 107.129 171.796 109.4 170.496C111.697 171.79 112.846 172.438 115.142 173.731Z" fill="#C6C6C6"/>
<path fill-rule="evenodd" clip-rule="evenodd" d="M165.431 144.946C149.569 154.026 133.707 163.105 117.845 172.185C115.549 170.891 114.4 170.244 112.104 168.95C127.967 159.871 143.829 150.791 159.691 141.711C161.988 143.006 163.136 143.653 165.431 144.946Z" fill="#C6C6C6"/>
<path fill-rule="evenodd" clip-rule="evenodd" d="M173.815 140.15C171.544 141.45 170.407 142.1 168.136 143.4C165.84 142.105 164.692 141.459 162.396 140.165C164.667 138.865 165.803 138.215 168.074 136.915C170.37 138.208 171.519 138.856 173.815 140.15Z" fill="#C6C6C6"/>
<path fill-rule="evenodd" clip-rule="evenodd" d="M182.196 135.351C179.925 136.652 178.789 137.301 176.518 138.601C174.221 137.308 173.073 136.66 170.777 135.367C173.048 134.066 174.184 133.417 176.456 132.117C178.752 133.411 179.899 134.057 182.196 135.351Z" fill="#C6C6C6"/>
<path fill-rule="evenodd" clip-rule="evenodd" d="M190.575 130.554C188.304 131.854 187.169 132.505 184.898 133.805C182.602 132.51 181.453 131.864 179.157 130.569C181.429 129.27 182.564 128.62 184.835 127.321C187.132 128.614 188.279 129.261 190.575 130.554Z" fill="#C6C6C6"/>
<path fill-rule="evenodd" clip-rule="evenodd" d="M126.548 174.514L165.678 151.995L188.039 165.726L148.923 188.253L126.548 174.514Z" fill="#C6C6C6"/>
<path fill-rule="evenodd" clip-rule="evenodd" d="M33.4062 162.527L33.5747 68.1961C33.5821 65.5653 34.9971 63.1374 37.2885 61.8293L142.509 1.74765C142.535 1.73289 142.561 1.71814 142.587 1.7043C143.121 1.41649 143.683 1.28827 144.232 1.28827C144.325 1.28827 144.418 1.29196 144.511 1.29934C143.434 2.95054 141.6 5.71146 139.155 9.36625L38.5897 66.9038L38.3722 154.317L42.8106 151.777C40.4961 155.188 38.4851 158.151 36.8387 160.575L33.4062 162.527Z" fill="#999999"/>
<path fill-rule="evenodd" clip-rule="evenodd" d="M38.5449 66.4181L139.154 9.36676L43.0787 151.192L38.5449 154.052V66.4181Z" fill="#af0202" style="color: #af0202;"/>
</svg>