<svg width="48" height="48" viewBox="0 0 48 48" fill="none" xmlns="http://www.w3.org/2000/svg">
<g id="social/linkedin/enabled">
<path id="Shape" fill-rule="evenodd" clip-rule="evenodd" d="M4 24C4 12.956 12.956 4 24 4C35.044 4 44 12.956 44 24C44 35.044 35.044 44 24 44C12.956 44 4 35.044 4 24ZM13.3174 34.2344H18.1883V19.5801H13.3174V34.2344ZM15.7527 17.5791H15.7209C14.0864 17.5791 13.0293 16.4539 13.0293 15.0477C13.0293 13.6097 14.1188 12.5156 15.785 12.5156C17.4513 12.5156 18.4767 13.6097 18.5084 15.0477C18.5084 16.4539 17.4513 17.5791 15.7527 17.5791ZM30.8813 34.2344H35.7516V25.8317C35.7516 21.3306 33.3487 19.2362 30.144 19.2362C27.5598 19.2362 26.4017 20.6565 25.7544 21.655V19.5801H20.8838C20.9476 20.955 20.8838 34.2344 20.8838 34.2344H25.7544V26.0508C25.7544 25.6129 25.7858 25.1752 25.9146 24.8621C26.2668 23.9872 27.0682 23.0808 28.4137 23.0808C30.1761 23.0808 30.8813 24.4245 30.8813 26.3947V34.2344Z" fill="#666666"/>
</g>
</svg>
