<svg width="81" height="48" viewBox="0 0 81 48" fill="none" xmlns="http://www.w3.org/2000/svg">
<path d="M1.81327 40.9346C1.52925 40.7754 1.22113 40.6605 0.935639 40.5039C-0.190973 39.8862 -0.357253 38.5737 0.750372 37.9302L63.8878 1.25024C64.7202 0.766696 65.7752 0.578308 66.8207 0.705233C67.4671 0.783709 68.0627 1.073 68.6307 1.3914L78.3358 6.83135C78.6199 6.99055 78.928 7.10551 79.2135 7.26205C80.3401 7.8798 80.5063 9.1923 79.3987 9.83578L16.2613 46.5158C15.4289 46.9993 14.3739 47.1877 13.3284 47.0608C12.682 46.9823 12.0864 46.693 11.5184 46.3746L1.81327 40.9346Z" fill="#333333" fill-opacity="0.2"/>
</svg>
