<svg width="48" height="48" viewBox="0 0 48 48" fill="none" xmlns="http://www.w3.org/2000/svg">
<g id="social/twitter/enabled">
<path id="Shape" fill-rule="evenodd" clip-rule="evenodd" d="M4 24C4 12.972 12.972 4 24 4C35.0288 4 44 12.972 44 24C44 35.0271 35.0271 44 24 44C12.972 44 4 35.0271 4 24ZM32.9359 20.0199C32.9359 19.8201 32.9311 19.6203 32.9222 19.4222C33.8221 18.7753 34.6027 17.964 35.2166 17.0424C34.3941 17.4089 33.5047 17.6555 32.5726 17.7666C33.5256 17.1963 34.2531 16.2948 34.5995 15.2193C33.7077 15.7486 32.7249 16.1304 31.6752 16.3367C30.8341 15.4425 29.6394 14.8834 28.315 14.8834C25.7733 14.8834 23.7125 16.9449 23.7125 19.4866C23.7125 19.8483 23.752 20.1988 23.831 20.5363C20.0059 20.343 16.6127 18.511 14.3433 15.7252C13.947 16.4052 13.7206 17.1963 13.7206 18.0405C13.7206 19.6373 14.5334 21.0471 15.7676 21.8712C15.0136 21.8478 14.3038 21.64 13.6835 21.296C13.6827 21.3145 13.6827 21.3347 13.6827 21.354C13.6827 23.5855 15.269 25.4457 17.3748 25.8678C16.9889 25.9734 16.5813 26.0281 16.1616 26.0281C15.8659 26.0281 15.5767 25.9983 15.2964 25.9452C15.882 27.7747 17.5827 29.1056 19.5967 29.1426C18.0209 30.3768 16.0367 31.1131 13.8793 31.1131C13.5079 31.1131 13.1414 31.0914 12.7812 31.0487C14.8178 32.3554 17.2379 33.1151 19.8376 33.1151C28.3069 33.1151 32.9359 26.1031 32.9359 20.0199Z" fill="#666666"/>
</g>
</svg>
