<svg width="260" height="52" viewBox="0 0 260 52" fill="none" xmlns="http://www.w3.org/2000/svg">
<g clip-path="url(#clip0_402_6)">
<path d="M71.6391 9.72685L71.5464 9.75773V23.5606H58.4538V9.75773L58.3611 9.72685C56.4158 9.32543 54.5013 9.32543 52.5868 9.72685L52.4941 9.75773V41.5012L52.5868 41.532C53.544 41.7173 54.5013 41.8408 55.4585 41.8408C56.4158 41.8408 57.373 41.7482 58.3611 41.532L58.4538 41.5012V28.6247H71.5464V41.5012L71.6391 41.532C73.5535 41.9335 75.4989 41.9335 77.4134 41.532L77.506 41.5012V9.75773L77.4134 9.72685C75.468 9.3563 73.5535 9.3563 71.6391 9.72685V9.72685ZM91.9265 18.6508C85.0714 18.6508 80.9954 22.9739 80.9954 30.2304C80.9954 33.9976 81.86 36.9929 83.5892 39.0617C85.4728 41.3159 88.2828 42.4584 92.0191 42.4584C98.3493 42.4584 101.592 38.6912 101.993 34.9549V34.8622L101.9 34.8313C100.295 34.3064 98.8125 34.1829 97.0524 34.4299H96.9906V34.4917C96.6201 36.7149 94.7674 38.0427 92.0809 38.0427C88.3137 38.0427 86.4609 35.9739 86.3992 31.7126H102.333V31.6199C102.796 27.4204 101.962 24.0237 99.9241 21.7078C98.0405 19.7316 95.2923 18.6508 91.9265 18.6508V18.6508ZM91.8647 22.7577C93.4396 22.7577 94.7673 23.2518 95.6628 24.209C96.5892 25.1971 97.0524 26.6793 96.9598 28.4394H86.3992C86.4918 24.8266 88.4989 22.7577 91.8647 22.7577V22.7577ZM106.193 9.72685L106.1 9.75773V41.5012L106.193 41.532C107.088 41.7173 107.984 41.8408 108.91 41.8408C109.805 41.8408 110.732 41.7482 111.627 41.532L111.72 41.5012V9.75773L111.627 9.72685C109.836 9.32543 108.014 9.3563 106.193 9.72685ZM127.345 18.6508C124.967 18.6508 122.466 19.5772 120.088 21.3373L119.748 19.6698L119.687 19.639C118.328 19.2375 117.216 19.2375 115.889 19.639L115.827 19.6698V51.2589L115.919 51.2898C116.815 51.475 117.71 51.5985 118.637 51.5985C119.563 51.5985 120.459 51.5059 121.354 51.2898L121.447 51.2589V40.6983C123.33 41.9026 125.337 42.4584 127.592 42.4584C133.829 42.4584 137.566 38.0427 137.566 30.6009C137.535 23.0356 133.829 18.6508 127.345 18.6508V18.6508ZM121.354 24.9192C123.022 23.7767 124.565 23.2518 126.233 23.2518C130.031 23.2518 132.1 25.8765 132.1 30.6936C132.1 35.418 130.062 37.9192 126.171 37.9192C124.504 37.9192 122.929 37.3943 121.354 36.2826V24.9192ZM161.373 24.4252C160.416 24.0546 159.551 23.7458 158.718 23.4679C154.395 21.924 151.801 20.9976 151.739 18.6508C151.708 17.5701 152.048 16.6437 152.789 15.8717C153.87 14.7601 155.691 14.1734 157.915 14.1734C160.107 14.1734 161.805 14.7601 162.824 15.8409C163.689 16.7672 164.06 18.0333 163.967 19.6081V19.7007L164.06 19.7316C165.943 20.1021 167.827 20.0713 169.865 19.6081L169.957 19.5772V19.4846C170.081 16.829 169.278 14.5131 167.642 12.7839C165.604 10.6223 162.33 9.47982 158.193 9.44894H158.069C150.38 9.44894 145.748 12.8765 145.687 18.62C145.656 24.3325 150.905 26.247 154.055 27.3587L154.518 27.5439C155.568 27.9145 156.556 28.2541 157.421 28.5629C161.682 30.0451 164.245 30.9406 164.338 33.1948C164.368 34.3682 164.029 35.3254 163.319 36.0665C162.3 37.1164 160.509 37.6413 158.131 37.6104C155.506 37.6104 153.499 36.9311 152.356 35.6959C151.523 34.7696 151.183 33.5962 151.307 32.1758V32.0831L151.214 32.0522C149.299 31.6817 147.354 31.7126 145.44 32.1449L145.378 32.1758V32.2684C145.223 34.8313 145.995 37.1164 147.663 38.8765C149.886 41.2541 153.53 42.4893 158.223 42.4584C162.824 42.4584 170.39 41.2233 170.452 33.1948C170.359 27.8527 165.789 26.1235 161.373 24.4252V24.4252ZM184.254 23.2518C188.053 23.2518 188.948 25.7221 189.133 27.1734V27.266H189.226C190.986 27.5439 192.653 27.4204 194.259 26.9572L194.352 26.9264V26.8337C194.197 24.6104 193.24 22.6033 191.665 21.152C189.874 19.5154 187.311 18.62 184.285 18.62C177.06 18.62 173.076 22.8504 173.076 30.5392C173.076 38.1971 177.029 42.4275 184.193 42.4275C187.281 42.4275 189.874 41.532 191.696 39.8337C193.209 38.4133 194.136 36.4988 194.321 34.4299V34.3373L194.228 34.3064C192.715 33.7815 191.048 33.6888 189.226 33.9976H189.164V34.0594C188.67 37.5178 185.304 37.7648 184.285 37.7648C180.395 37.7648 178.573 35.4489 178.573 30.4774C178.542 25.5677 180.364 23.2518 184.254 23.2518V23.2518ZM208.031 18.6508C200.929 18.6508 197.007 22.8812 197.007 30.5701C197.007 38.228 200.929 42.4584 208.031 42.4584C215.133 42.4584 219.055 38.228 219.055 30.5701C219.055 22.8812 215.133 18.6508 208.031 18.6508ZM213.682 30.6009C213.682 35.5107 211.829 37.8883 208.031 37.8883C204.233 37.8883 202.38 35.5107 202.38 30.6009C202.38 25.5986 204.171 23.2518 208.031 23.2518C211.829 23.2518 213.682 25.6603 213.682 30.6009ZM236.841 19.6698L236.749 19.7007V35.5107C234.958 37.0546 233.321 37.7339 231.437 37.7339C228.782 37.7339 227.639 36.2209 227.639 32.6389V19.6698L227.547 19.639C225.756 19.2066 223.934 19.2066 222.112 19.639L222.019 19.6698V33.905C222.019 39.3088 224.922 42.4275 230.017 42.4275C232.734 42.4275 235.112 41.3776 237.675 39.0309L238.2 41.5012L238.262 41.532C239.559 41.8717 240.917 41.8717 242.214 41.532L242.307 41.5012V19.6698L242.214 19.639C240.485 19.2066 238.663 19.2066 236.841 19.6698V19.6698ZM259.414 37.2708L259.383 37.1781L259.29 37.209C257.129 37.7031 255.863 37.6722 255.121 37.0855C254.504 36.5914 254.226 35.7268 254.226 34.3682V24.2399H258.611L258.642 24.1473C258.95 22.6651 258.95 21.152 258.642 19.639L258.611 19.5463H254.226V13.5558L254.133 13.5249C252.342 13.1235 250.521 13.1235 248.73 13.5249L248.637 13.5558L248.668 19.5463H245.889L245.858 19.639C245.518 21.1211 245.518 22.6651 245.858 24.1473L245.889 24.2399H248.668L248.699 33.9667C248.699 36.6841 248.853 39.4323 250.737 41.0071C251.756 41.8408 253.238 42.2731 255.152 42.2731C256.326 42.2731 257.684 42.1187 259.259 41.8099H259.321L259.352 41.7482C259.784 40.2969 259.815 38.7838 259.414 37.2708V37.2708Z" fill="#2A3B47"/>
<path d="M3.3656 30.0143L18.3727 15.0071C20.3181 13.0926 21.5224 10.4062 21.5224 7.47269C21.5224 4.57007 20.349 1.91449 18.4654 0L3.45824 15.0071C1.51287 16.9216 0.308594 19.6081 0.308594 22.5416C0.308594 25.4751 1.48199 28.0998 3.3656 30.0143ZM39.71 21.2447L24.7029 36.2518C22.7575 38.1663 21.5532 40.8528 21.5532 43.7862C21.5532 46.6889 22.7266 49.3444 24.6103 51.2589L39.6174 36.2518C41.5627 34.3373 42.767 31.6508 42.767 28.7174C42.767 25.7839 41.5936 23.1592 39.71 21.2447ZM39.6174 15.038C41.5627 13.1235 42.767 10.4371 42.767 7.50357C42.767 4.60095 41.5936 1.94537 39.71 0.0308789L3.45824 36.2518C1.51287 38.1972 0.308594 40.8527 0.308594 43.8171C0.308594 46.7197 1.48199 49.3753 3.3656 51.2898L39.6174 15.038Z" fill="#1292EE"/>
</g>
<defs>
<clipPath id="clip0_402_6">
<rect width="260" height="51.8765" fill="white"/>
</clipPath>
</defs>
</svg>
